<svg width="45" height="47" viewBox="0 0 45 47" fill="none" xmlns="http://www.w3.org/2000/svg">
<g clip-path="url(#clip0)" filter="url(#filter0_d)">
<path fill-rule="evenodd" clip-rule="evenodd" d="M22.5 1.99988C32.7172 1.99988 40.9999 10.2827 40.9999 20.5C40.9999 30.7169 32.7172 38.9997 22.5 38.9997C12.2827 38.9997 3.99992 30.7169 3.99992 20.5C3.99992 10.2827 12.2827 1.99988 22.5 1.99988Z" fill="url(#paint0_linear)"/>
<path d="M23.632 16.012H27.904C28.2133 16.012 28.4747 16.1187 28.688 16.332C28.9013 16.5453 29.008 16.8067 29.008 17.116V20.988C29.008 22.8227 28.624 24.268 27.856 25.324C27.2373 26.188 26.2613 26.972 24.928 27.676C24.6613 27.8147 24.3787 27.8307 24.08 27.724C23.7813 27.628 23.5627 27.4413 23.424 27.164L23.056 26.46C22.9173 26.204 22.8907 25.932 22.976 25.644C23.072 25.356 23.248 25.1373 23.504 24.988C24.1333 24.6253 24.5973 24.2627 24.896 23.9C25.1307 23.612 25.3013 23.3187 25.408 23.02C25.472 22.8493 25.472 22.6893 25.408 22.54C25.344 22.38 25.232 22.252 25.072 22.156C24.912 22.06 24.7307 22.012 24.528 22.012H23.632C23.3227 22.012 23.0613 21.9053 22.848 21.692C22.6347 21.4787 22.528 21.2227 22.528 20.924V17.116C22.528 16.8067 22.6347 16.5453 22.848 16.332C23.072 16.1187 23.3333 16.012 23.632 16.012ZM16.096 16.012H20.368C20.6773 16.012 20.9387 16.1187 21.152 16.332C21.3653 16.5453 21.472 16.8067 21.472 17.116V20.988C21.472 22.8227 21.088 24.268 20.32 25.324C19.7013 26.188 18.7253 26.972 17.392 27.676C17.1253 27.8147 16.8427 27.8307 16.544 27.724C16.256 27.628 16.0373 27.4413 15.888 27.164L15.52 26.46C15.3813 26.204 15.3547 25.932 15.44 25.644C15.536 25.356 15.712 25.1373 15.968 24.988C16.6187 24.6147 17.0827 24.252 17.36 23.9C17.5947 23.612 17.7653 23.3187 17.872 23.02C17.936 22.8493 17.936 22.6893 17.872 22.54C17.808 22.38 17.696 22.252 17.536 22.156C17.376 22.06 17.1947 22.012 16.992 22.012H16.096C15.7973 22.012 15.5413 21.9053 15.328 21.692C15.1147 21.4787 15.008 21.2227 15.008 20.924V17.116C15.008 16.8067 15.1147 16.5453 15.328 16.332C15.5413 16.1187 15.7973 16.012 16.096 16.012Z" fill="white"/>
</g>
<defs>
<filter id="filter0_d" x="-2" y="0" width="48" height="48" filterUnits="userSpaceOnUse" color-interpolation-filters="sRGB">
<feFlood flood-opacity="0" result="BackgroundImageFix"/>
<feColorMatrix in="SourceAlpha" type="matrix" values="0 0 0 0 0 0 0 0 0 0 0 0 0 0 0 0 0 0 127 0" result="hardAlpha"/>
<feOffset dy="4"/>
<feGaussianBlur stdDeviation="2"/>
<feComposite in2="hardAlpha" operator="out"/>
<feColorMatrix type="matrix" values="0 0 0 0 0 0 0 0 0 0 0 0 0 0 0 0 0 0 0.25 0"/>
<feBlend mode="normal" in2="BackgroundImageFix" result="effect1_dropShadow"/>
<feBlend mode="normal" in="SourceGraphic" in2="effect1_dropShadow" result="shape"/>
</filter>
<linearGradient id="paint0_linear" x1="2" y1="18.6667" x2="73.5703" y2="37.8751" gradientUnits="userSpaceOnUse">
<stop stop-color="#47C2FF"/>
<stop offset="1" stop-color="#63CBFE" stop-opacity="0.65"/>
</linearGradient>
<clipPath id="clip0">
<rect width="40" height="40" fill="white" transform="translate(2)"/>
</clipPath>
</defs>
</svg>
