<svg width="1440" height="6050" viewBox="0 0 1440 6050" fill="none" xmlns="http://www.w3.org/2000/svg">
<g clip-path="url(#clip0)" filter="url(#filter0_b)">
<rect width="1440" height="6050" fill="white"/>
<g opacity="0.1" filter="url(#filter1_b)">
<rect y="-35" width="1461" height="6282"/>
</g>
<g opacity="0.1" filter="url(#filter2_b)">
<rect y="-35" width="1461" height="5350" fill="url(#paint0_linear)"/>
</g>
<g opacity="0.3" filter="url(#filter3_f)">
<path fill-rule="evenodd" clip-rule="evenodd" d="M1722.74 5667.77C1701.01 5736.03 1651.28 5788.25 1606.24 5843.91C1567.43 5891.87 1526.07 5934.62 1476.8 5971.71C1421.91 6013.02 1370.15 6070.52 1301.53 6073.25C1232.7 6075.99 1174.89 6024.94 1118.02 5986.01C1064.56 5949.41 1026.49 5898.97 980.398 5853.41C917.318 5791.05 808.454 5755.67 796.115 5667.77C784.186 5582.81 870.778 5516.86 923.671 5449.35C970.548 5389.52 1022.87 5336.52 1087.25 5296.18C1153.36 5254.75 1224.37 5201.19 1301.53 5212.54C1378.57 5223.88 1411.33 5322.24 1482.3 5354.29C1565.05 5391.66 1688.38 5340.12 1743.66 5412.2C1796.56 5481.17 1749.11 5584.92 1722.74 5667.77Z" fill="url(#paint1_linear)"/>
</g>
<g opacity="0.3" filter="url(#filter4_f)">
<path fill-rule="evenodd" clip-rule="evenodd" d="M1838.9 5907.98C1817.17 5976.23 1767.44 6028.45 1722.4 6084.11C1683.59 6132.07 1642.24 6174.82 1592.96 6211.91C1538.07 6253.22 1486.31 6310.72 1417.69 6313.45C1348.86 6316.19 1291.05 6265.14 1234.19 6226.21C1180.72 6189.61 1142.65 6139.17 1096.56 6093.61C1033.48 6031.25 924.615 5995.87 912.276 5907.98C900.347 5823.01 986.94 5757.06 1039.83 5689.55C1086.71 5629.72 1139.03 5576.72 1203.41 5536.38C1269.52 5494.95 1340.53 5441.39 1417.69 5452.75C1494.73 5464.08 1527.49 5562.44 1598.46 5594.49C1681.21 5631.86 1804.54 5580.32 1859.82 5652.4C1912.72 5721.37 1865.27 5825.12 1838.9 5907.98Z" fill="url(#paint2_linear)" fill-opacity="0.7"/>
</g>
<g opacity="0.3" filter="url(#filter5_f)">
<path fill-rule="evenodd" clip-rule="evenodd" d="M567.982 338.687C550.207 394.528 509.523 437.246 472.674 482.784C440.925 522.019 407.091 556.995 366.777 587.337C321.874 621.134 279.526 668.169 223.394 670.406C167.08 672.65 119.788 630.881 73.2658 599.033C29.5248 569.088 -1.62045 527.828 -39.3261 490.553C-90.932 439.536 -179.993 410.591 -190.088 338.687C-199.847 269.176 -129.006 215.224 -85.7347 159.994C-47.3848 111.045 -4.57843 67.6906 48.0905 34.6831C102.174 0.78925 160.267 -43.0223 223.394 -33.7362C286.417 -24.4652 313.215 56.004 371.282 82.2257C438.977 112.795 539.87 70.6304 585.1 129.602C628.376 186.025 589.559 270.905 567.982 338.687Z" fill="#B1DEFF"/>
</g>
<g opacity="0.3" filter="url(#filter6_f)">
<path fill-rule="evenodd" clip-rule="evenodd" d="M663.015 535.194C645.239 591.035 604.555 633.753 567.706 679.291C535.957 718.526 502.123 753.502 461.809 783.844C416.906 817.641 374.558 864.677 318.426 866.913C262.112 869.157 214.821 827.388 168.298 795.54C124.557 765.595 93.4117 724.335 55.706 687.06C4.10008 636.044 -84.9611 607.098 -95.056 535.194C-104.815 465.683 -33.9736 411.731 9.29742 356.501C47.6473 307.553 90.4537 264.198 143.123 231.19C197.206 197.296 255.299 153.485 318.426 162.771C381.449 172.042 408.247 252.511 466.314 278.733C534.009 309.302 634.902 267.137 680.132 326.109C723.408 382.532 684.591 467.412 663.015 535.194Z" fill="url(#paint3_linear)" fill-opacity="0.5"/>
</g>
<g opacity="0.5">
<g opacity="0.3" filter="url(#filter7_f)">
<path fill-rule="evenodd" clip-rule="evenodd" d="M1546.21 1616C1535.17 1650.67 1509.91 1677.19 1487.04 1705.46C1467.33 1729.82 1446.32 1751.54 1421.29 1770.37C1393.41 1791.36 1367.12 1820.56 1332.27 1821.95C1297.31 1823.34 1267.95 1797.41 1239.07 1777.63C1211.91 1759.04 1192.57 1733.43 1169.17 1710.29C1137.13 1678.61 1081.83 1660.64 1075.57 1616C1069.51 1572.85 1113.49 1539.35 1140.35 1505.06C1164.16 1474.67 1190.74 1447.75 1223.44 1427.26C1257.01 1406.22 1293.08 1379.02 1332.27 1384.78C1371.4 1390.54 1388.04 1440.5 1424.09 1456.78C1466.12 1475.76 1528.75 1449.58 1556.84 1486.19C1583.7 1521.22 1559.6 1573.92 1546.21 1616Z" fill="#CDE9FF"/>
</g>
<g opacity="0.3" filter="url(#filter8_f)">
<path fill-rule="evenodd" clip-rule="evenodd" d="M1605.21 1738C1594.17 1772.67 1568.91 1799.19 1546.04 1827.46C1526.33 1851.82 1505.32 1873.54 1480.29 1892.37C1452.41 1913.36 1426.12 1942.56 1391.27 1943.95C1356.31 1945.34 1326.95 1919.41 1298.07 1899.63C1270.91 1881.04 1251.57 1855.43 1228.17 1832.29C1196.13 1800.61 1140.83 1782.64 1134.57 1738C1128.51 1694.85 1172.49 1661.35 1199.35 1627.06C1223.16 1596.67 1249.74 1569.75 1282.44 1549.26C1316.01 1528.22 1352.08 1501.02 1391.27 1506.78C1430.4 1512.54 1447.04 1562.5 1483.09 1578.78C1525.12 1597.76 1587.75 1571.58 1615.84 1608.19C1642.7 1643.22 1618.6 1695.92 1605.21 1738Z" fill="#73FFCF" fill-opacity="0.8"/>
</g>
</g>
<g opacity="0.3" filter="url(#filter9_f)">
<path fill-rule="evenodd" clip-rule="evenodd" d="M299.209 2251C288.173 2285.67 262.914 2312.19 240.037 2340.46C220.326 2364.82 199.32 2386.54 174.292 2405.37C146.414 2426.36 120.122 2455.56 85.2732 2456.95C50.3115 2458.34 20.9507 2432.41 -7.93251 2412.63C-35.0888 2394.04 -54.4251 2368.43 -77.8344 2345.29C-109.874 2313.61 -165.167 2295.64 -171.434 2251C-177.493 2207.85 -133.511 2174.35 -106.647 2140.06C-82.8375 2109.67 -56.2616 2082.75 -23.5624 2062.26C10.0146 2041.22 46.0816 2014.02 85.2732 2019.78C124.401 2025.54 141.038 2075.5 177.088 2091.78C219.116 2110.76 281.755 2084.58 309.836 2121.19C336.703 2156.22 312.604 2208.92 299.209 2251Z" fill="#CDE9FF"/>
</g>
<g opacity="0.3" filter="url(#filter10_f)">
<path fill-rule="evenodd" clip-rule="evenodd" d="M358.209 2373C347.173 2407.67 321.914 2434.19 299.037 2462.46C279.326 2486.82 258.32 2508.54 233.292 2527.37C205.414 2548.36 179.122 2577.56 144.273 2578.95C109.311 2580.34 79.9507 2554.41 51.0675 2534.63C23.9111 2516.04 4.57487 2490.43 -18.8344 2467.29C-50.8736 2435.61 -106.167 2417.64 -112.434 2373C-118.493 2329.85 -74.5113 2296.35 -47.6469 2262.06C-23.8376 2231.67 2.7384 2204.75 35.4375 2184.26C69.0146 2163.22 105.082 2136.02 144.273 2141.78C183.401 2147.54 200.038 2197.5 236.088 2213.78C278.116 2232.76 340.755 2206.58 368.836 2243.19C395.703 2278.22 371.604 2330.92 358.209 2373Z" fill="#99D4ED"/>
</g>
<g style="mix-blend-mode:darken" opacity="0.6">
<g opacity="0.3" filter="url(#filter11_f)">
<path fill-rule="evenodd" clip-rule="evenodd" d="M1561.58 2385.83C1547.75 2429.29 1516.08 2462.53 1487.41 2497.98C1462.7 2528.51 1436.36 2555.73 1404.99 2579.35C1370.04 2605.65 1337.08 2642.26 1293.4 2644C1249.57 2645.74 1212.77 2613.24 1176.56 2588.45C1142.52 2565.14 1118.28 2533.03 1088.93 2504.02C1048.77 2464.32 979.454 2441.79 971.597 2385.83C964.002 2331.73 1019.14 2289.74 1052.81 2246.76C1082.66 2208.66 1115.97 2174.92 1156.96 2149.23C1199.06 2122.85 1244.27 2088.76 1293.4 2095.98C1342.45 2103.2 1363.3 2165.83 1408.49 2186.23C1461.18 2210.02 1539.7 2177.21 1574.9 2223.1C1608.58 2267.02 1578.37 2333.08 1561.58 2385.83Z" fill="#CDE9FF"/>
</g>
<g opacity="0.3" filter="url(#filter12_f)">
<path fill-rule="evenodd" clip-rule="evenodd" d="M1635.54 2538.77C1621.71 2582.22 1590.04 2615.47 1561.37 2650.91C1536.66 2681.45 1510.32 2708.67 1478.95 2732.28C1444 2758.59 1411.04 2795.19 1367.36 2796.93C1323.53 2798.68 1286.73 2766.17 1250.52 2741.38C1216.48 2718.08 1192.24 2685.97 1162.89 2656.96C1122.73 2617.25 1053.41 2594.73 1045.56 2538.77C1037.96 2484.67 1093.1 2442.68 1126.77 2399.69C1156.62 2361.6 1189.93 2327.86 1230.93 2302.17C1273.02 2275.79 1318.23 2241.69 1367.36 2248.92C1416.41 2256.13 1437.26 2318.76 1482.46 2339.17C1535.14 2362.96 1613.66 2330.14 1648.86 2376.04C1682.54 2419.95 1652.33 2486.01 1635.54 2538.77Z" fill="url(#paint4_linear)" fill-opacity="0.7"/>
</g>
</g>
<g opacity="0.3" filter="url(#filter13_f)">
<path fill-rule="evenodd" clip-rule="evenodd" d="M1682.74 3955.78C1661.01 4024.03 1611.28 4076.25 1566.24 4131.91C1527.43 4179.87 1486.07 4222.62 1436.8 4259.71C1381.91 4301.02 1330.15 4358.52 1261.53 4361.25C1192.7 4363.99 1134.89 4312.94 1078.02 4274.01C1024.56 4237.41 986.488 4186.97 940.398 4141.41C877.318 4079.05 768.454 4043.67 756.115 3955.77C744.186 3870.81 830.779 3804.86 883.671 3737.35C930.548 3677.52 982.872 3624.52 1047.25 3584.18C1113.36 3542.75 1184.37 3489.19 1261.53 3500.54C1338.57 3511.88 1371.33 3610.24 1442.3 3642.29C1525.05 3679.66 1648.38 3628.12 1703.66 3700.2C1756.56 3769.17 1709.11 3872.92 1682.74 3955.78Z" fill="#CDE9FF"/>
</g>
<g opacity="0.3" filter="url(#filter14_f)">
<path fill-rule="evenodd" clip-rule="evenodd" d="M1798.9 4195.98C1777.17 4264.23 1727.44 4316.45 1682.4 4372.11C1643.59 4420.07 1602.24 4462.82 1552.96 4499.91C1498.07 4541.22 1446.31 4598.72 1377.69 4601.45C1308.86 4604.19 1251.05 4553.14 1194.19 4514.21C1140.72 4477.61 1102.65 4427.17 1056.56 4381.61C993.479 4319.25 884.615 4283.87 872.276 4195.98C860.347 4111.01 946.94 4045.06 999.832 3977.55C1046.71 3917.72 1099.03 3864.72 1163.41 3824.38C1229.52 3782.95 1300.53 3729.39 1377.69 3740.74C1454.73 3752.08 1487.49 3850.44 1558.46 3882.49C1641.21 3919.86 1764.54 3868.32 1819.82 3940.4C1872.72 4009.37 1825.27 4113.12 1798.9 4195.98Z" fill="url(#paint5_linear)" fill-opacity="0.7"/>
</g>
<g opacity="0.3" filter="url(#filter15_f)">
<path fill-rule="evenodd" clip-rule="evenodd" d="M405.47 3929.8C391.876 3972.5 360.76 4005.17 332.578 4040C308.297 4070.01 282.42 4096.76 251.588 4119.96C217.246 4145.81 184.858 4181.78 141.928 4183.49C98.86 4185.21 62.6911 4153.27 27.1107 4128.91C-6.34252 4106.01 -30.1624 4074.45 -58.9997 4045.94C-98.468 4006.93 -166.582 3984.79 -174.303 3929.8C-181.766 3876.63 -127.587 3835.37 -94.493 3793.13C-65.163 3755.7 -32.4247 3722.54 7.8565 3697.29C49.2193 3671.37 93.6493 3637.86 141.928 3644.97C190.129 3652.06 210.624 3713.6 255.033 3733.65C306.807 3757.03 383.969 3724.79 418.561 3769.89C451.659 3813.04 421.972 3877.96 405.47 3929.8Z" fill="#9AD2FE"/>
</g>
<g opacity="0.3" filter="url(#filter16_f)">
<path fill-rule="evenodd" clip-rule="evenodd" d="M478.149 4080.08C464.555 4122.79 433.44 4155.46 405.257 4190.29C380.976 4220.3 355.099 4247.05 324.268 4270.25C289.925 4296.1 257.538 4332.07 214.608 4333.78C171.539 4335.5 135.37 4303.55 99.79 4279.2C66.3368 4256.3 42.5169 4224.74 13.6796 4196.23C-25.7887 4157.21 -93.9027 4135.08 -101.623 4080.08C-109.087 4026.92 -54.9074 3985.66 -21.8137 3943.42C7.51632 3905.98 40.2546 3872.83 80.5358 3847.58C121.899 3821.66 166.329 3788.15 214.608 3795.26C262.808 3802.35 283.303 3863.89 327.712 3883.94C379.486 3907.32 456.649 3875.08 491.241 3920.18C524.338 3963.33 494.651 4028.25 478.149 4080.08Z" fill="#62A9FF"/>
</g>
<g opacity="0.6">
<g opacity="0.3" filter="url(#filter17_f)">
<path fill-rule="evenodd" clip-rule="evenodd" d="M422.47 4952.8C408.876 4995.5 377.76 5028.17 349.578 5063C325.297 5093.01 299.42 5119.76 268.588 5142.96C234.246 5168.81 201.858 5204.78 158.928 5206.49C115.86 5208.21 79.6911 5176.27 44.1107 5151.91C10.6575 5129.01 -13.1624 5097.45 -41.9997 5068.94C-81.468 5029.93 -149.582 5007.79 -157.303 4952.8C-164.766 4899.63 -110.587 4858.37 -77.493 4816.13C-48.163 4778.7 -15.4247 4745.54 24.8565 4720.29C66.2193 4694.37 110.649 4660.86 158.928 4667.97C207.129 4675.06 227.624 4736.6 272.033 4756.65C323.807 4780.03 400.969 4747.79 435.561 4792.89C468.659 4836.04 438.972 4900.96 422.47 4952.8Z" fill="#1DA1F2"/>
</g>
<g opacity="0.3" filter="url(#filter18_f)">
<path fill-rule="evenodd" clip-rule="evenodd" d="M495.149 5103.08C481.555 5145.79 450.44 5178.46 422.257 5213.29C397.976 5243.3 372.099 5270.05 341.268 5293.25C306.925 5319.1 274.538 5355.07 231.608 5356.78C188.539 5358.5 152.37 5326.55 116.79 5302.2C83.3368 5279.3 59.5169 5247.74 30.6796 5219.23C-8.78865 5180.21 -76.9027 5158.08 -84.6233 5103.08C-92.087 5049.92 -37.9074 5008.66 -4.81373 4966.42C24.5163 4928.98 57.2546 4895.83 97.5358 4870.58C138.899 4844.66 183.329 4811.15 231.608 4818.26C279.808 4825.35 300.303 4886.89 344.712 4906.94C396.486 4930.32 473.649 4898.07 508.241 4943.18C541.338 4986.33 511.651 5051.25 495.149 5103.08Z" fill="#36FFBA" fill-opacity="0.62"/>
</g>
</g>
<g opacity="0.8">
<g opacity="0.3" filter="url(#filter19_f)">
<path fill-rule="evenodd" clip-rule="evenodd" d="M250.694 3178.83C236.86 3222.29 205.196 3255.53 176.518 3290.98C151.809 3321.51 125.476 3348.73 94.1014 3372.35C59.1543 3398.65 26.1962 3435.26 -17.4897 3437C-61.3167 3438.74 -98.1226 3406.24 -134.33 3381.45C-168.372 3358.14 -192.611 3326.03 -221.957 3297.02C-262.12 3257.32 -331.434 3234.79 -339.29 3178.83C-346.886 3124.73 -291.752 3082.74 -258.075 3039.76C-228.229 3001.66 -194.914 2967.92 -153.923 2942.23C-111.832 2915.85 -66.6192 2881.76 -17.4897 2888.98C31.5595 2896.2 52.4153 2958.83 97.6071 2979.23C150.292 3003.02 228.814 2970.21 264.015 3016.1C297.696 3060.02 267.486 3126.08 250.694 3178.83Z" fill="white"/>
</g>
<g opacity="0.3" filter="url(#filter20_f)">
<path fill-rule="evenodd" clip-rule="evenodd" d="M324.654 3331.77C310.82 3375.22 279.157 3408.47 250.478 3443.91C225.769 3474.45 199.437 3501.67 168.062 3525.28C133.115 3551.59 100.157 3588.19 56.471 3589.93C12.644 3591.68 -24.1619 3559.17 -60.369 3534.38C-94.4114 3511.08 -118.651 3478.97 -147.996 3449.96C-188.159 3410.25 -257.473 3387.73 -265.33 3331.77C-272.925 3277.67 -217.791 3235.68 -184.114 3192.69C-154.268 3154.6 -120.953 3120.86 -79.9623 3095.17C-37.871 3068.79 7.34152 3034.69 56.471 3041.92C105.52 3049.13 126.376 3111.76 171.568 3132.17C224.253 3155.96 302.775 3123.14 337.976 3169.04C371.656 3212.95 341.447 3279.01 324.654 3331.77Z" fill="white"/>
</g>
</g>
</g>
<defs>
<filter id="filter0_b" x="-44" y="-44" width="1528" height="6138" filterUnits="userSpaceOnUse" color-interpolation-filters="sRGB">
<feFlood flood-opacity="0" result="BackgroundImageFix"/>
<feGaussianBlur in="BackgroundImage" stdDeviation="22"/>
<feComposite in2="SourceAlpha" operator="in" result="effect1_backgroundBlur"/>
<feBlend mode="normal" in="SourceGraphic" in2="effect1_backgroundBlur" result="shape"/>
</filter>
<filter id="filter1_b" x="-5.66656e+07" y="-5.66656e+07" width="1.13333e+08" height="1.13337e+08" filterUnits="userSpaceOnUse" color-interpolation-filters="sRGB">
<feFlood flood-opacity="0" result="BackgroundImageFix"/>
<feGaussianBlur in="BackgroundImage" stdDeviation="2.83328e+07"/>
<feComposite in2="SourceAlpha" operator="in" result="effect1_backgroundBlur"/>
<feBlend mode="normal" in="SourceGraphic" in2="effect1_backgroundBlur" result="shape"/>
</filter>
<filter id="filter2_b" x="-9558" y="-9593" width="20577" height="24466" filterUnits="userSpaceOnUse" color-interpolation-filters="sRGB">
<feFlood flood-opacity="0" result="BackgroundImageFix"/>
<feGaussianBlur in="BackgroundImage" stdDeviation="4779"/>
<feComposite in2="SourceAlpha" operator="in" result="effect1_backgroundBlur"/>
<feBlend mode="normal" in="SourceGraphic" in2="effect1_backgroundBlur" result="shape"/>
</filter>
<filter id="filter3_f" x="97.6563" y="4513.66" width="2367.3" height="2257.04" filterUnits="userSpaceOnUse" color-interpolation-filters="sRGB">
<feFlood flood-opacity="0" result="BackgroundImageFix"/>
<feBlend mode="normal" in="SourceGraphic" in2="BackgroundImageFix" result="shape"/>
<feGaussianBlur stdDeviation="348.672" result="effect1_foregroundBlur"/>
</filter>
<filter id="filter4_f" x="213.817" y="4753.86" width="2367.3" height="2257.04" filterUnits="userSpaceOnUse" color-interpolation-filters="sRGB">
<feFlood flood-opacity="0" result="BackgroundImageFix"/>
<feBlend mode="normal" in="SourceGraphic" in2="BackgroundImageFix" result="shape"/>
<feGaussianBlur stdDeviation="348.672" result="effect1_foregroundBlur"/>
</filter>
<filter id="filter5_f" x="-635" y="-479" width="1683.69" height="1593.49" filterUnits="userSpaceOnUse" color-interpolation-filters="sRGB">
<feFlood flood-opacity="0" result="BackgroundImageFix"/>
<feBlend mode="normal" in="SourceGraphic" in2="BackgroundImageFix" result="shape"/>
<feGaussianBlur stdDeviation="222" result="effect1_foregroundBlur"/>
</filter>
<filter id="filter6_f" x="-539.968" y="-282.493" width="1683.69" height="1593.49" filterUnits="userSpaceOnUse" color-interpolation-filters="sRGB">
<feFlood flood-opacity="0" result="BackgroundImageFix"/>
<feBlend mode="normal" in="SourceGraphic" in2="BackgroundImageFix" result="shape"/>
<feGaussianBlur stdDeviation="222" result="effect1_foregroundBlur"/>
</filter>
<filter id="filter7_f" x="631" y="940" width="1382" height="1326" filterUnits="userSpaceOnUse" color-interpolation-filters="sRGB">
<feFlood flood-opacity="0" result="BackgroundImageFix"/>
<feBlend mode="normal" in="SourceGraphic" in2="BackgroundImageFix" result="shape"/>
<feGaussianBlur stdDeviation="222" result="effect1_foregroundBlur"/>
</filter>
<filter id="filter8_f" x="690" y="1062" width="1382" height="1326" filterUnits="userSpaceOnUse" color-interpolation-filters="sRGB">
<feFlood flood-opacity="0" result="BackgroundImageFix"/>
<feBlend mode="normal" in="SourceGraphic" in2="BackgroundImageFix" result="shape"/>
<feGaussianBlur stdDeviation="222" result="effect1_foregroundBlur"/>
</filter>
<filter id="filter9_f" x="-616" y="1575" width="1382" height="1326" filterUnits="userSpaceOnUse" color-interpolation-filters="sRGB">
<feFlood flood-opacity="0" result="BackgroundImageFix"/>
<feBlend mode="normal" in="SourceGraphic" in2="BackgroundImageFix" result="shape"/>
<feGaussianBlur stdDeviation="222" result="effect1_foregroundBlur"/>
</filter>
<filter id="filter10_f" x="-557" y="1697" width="1382" height="1326" filterUnits="userSpaceOnUse" color-interpolation-filters="sRGB">
<feFlood flood-opacity="0" result="BackgroundImageFix"/>
<feBlend mode="normal" in="SourceGraphic" in2="BackgroundImageFix" result="shape"/>
<feGaussianBlur stdDeviation="222" result="effect1_foregroundBlur"/>
</filter>
<filter id="filter11_f" x="526.888" y="1651" width="1507.26" height="1437.06" filterUnits="userSpaceOnUse" color-interpolation-filters="sRGB">
<feFlood flood-opacity="0" result="BackgroundImageFix"/>
<feBlend mode="normal" in="SourceGraphic" in2="BackgroundImageFix" result="shape"/>
<feGaussianBlur stdDeviation="222" result="effect1_foregroundBlur"/>
</filter>
<filter id="filter12_f" x="600.848" y="1803.94" width="1507.26" height="1437.06" filterUnits="userSpaceOnUse" color-interpolation-filters="sRGB">
<feFlood flood-opacity="0" result="BackgroundImageFix"/>
<feBlend mode="normal" in="SourceGraphic" in2="BackgroundImageFix" result="shape"/>
<feGaussianBlur stdDeviation="222" result="effect1_foregroundBlur"/>
</filter>
<filter id="filter13_f" x="57.6563" y="2801.66" width="2367.3" height="2257.04" filterUnits="userSpaceOnUse" color-interpolation-filters="sRGB">
<feFlood flood-opacity="0" result="BackgroundImageFix"/>
<feBlend mode="normal" in="SourceGraphic" in2="BackgroundImageFix" result="shape"/>
<feGaussianBlur stdDeviation="348.672" result="effect1_foregroundBlur"/>
</filter>
<filter id="filter14_f" x="173.817" y="3041.86" width="2367.3" height="2257.04" filterUnits="userSpaceOnUse" color-interpolation-filters="sRGB">
<feFlood flood-opacity="0" result="BackgroundImageFix"/>
<feBlend mode="normal" in="SourceGraphic" in2="BackgroundImageFix" result="shape"/>
<feGaussianBlur stdDeviation="348.672" result="effect1_foregroundBlur"/>
</filter>
<filter id="filter15_f" x="-872.344" y="2946.66" width="2003.23" height="1934.25" filterUnits="userSpaceOnUse" color-interpolation-filters="sRGB">
<feFlood flood-opacity="0" result="BackgroundImageFix"/>
<feBlend mode="normal" in="SourceGraphic" in2="BackgroundImageFix" result="shape"/>
<feGaussianBlur stdDeviation="348.672" result="effect1_foregroundBlur"/>
</filter>
<filter id="filter16_f" x="-799.664" y="3096.95" width="2003.23" height="1934.25" filterUnits="userSpaceOnUse" color-interpolation-filters="sRGB">
<feFlood flood-opacity="0" result="BackgroundImageFix"/>
<feBlend mode="normal" in="SourceGraphic" in2="BackgroundImageFix" result="shape"/>
<feGaussianBlur stdDeviation="348.672" result="effect1_foregroundBlur"/>
</filter>
<filter id="filter17_f" x="-855.344" y="3969.66" width="2003.23" height="1934.25" filterUnits="userSpaceOnUse" color-interpolation-filters="sRGB">
<feFlood flood-opacity="0" result="BackgroundImageFix"/>
<feBlend mode="normal" in="SourceGraphic" in2="BackgroundImageFix" result="shape"/>
<feGaussianBlur stdDeviation="348.672" result="effect1_foregroundBlur"/>
</filter>
<filter id="filter18_f" x="-782.664" y="4119.95" width="2003.23" height="1934.25" filterUnits="userSpaceOnUse" color-interpolation-filters="sRGB">
<feFlood flood-opacity="0" result="BackgroundImageFix"/>
<feBlend mode="normal" in="SourceGraphic" in2="BackgroundImageFix" result="shape"/>
<feGaussianBlur stdDeviation="348.672" result="effect1_foregroundBlur"/>
</filter>
<filter id="filter19_f" x="-784" y="2444" width="1507.26" height="1437.06" filterUnits="userSpaceOnUse" color-interpolation-filters="sRGB">
<feFlood flood-opacity="0" result="BackgroundImageFix"/>
<feBlend mode="normal" in="SourceGraphic" in2="BackgroundImageFix" result="shape"/>
<feGaussianBlur stdDeviation="222" result="effect1_foregroundBlur"/>
</filter>
<filter id="filter20_f" x="-710.039" y="2596.94" width="1507.26" height="1437.06" filterUnits="userSpaceOnUse" color-interpolation-filters="sRGB">
<feFlood flood-opacity="0" result="BackgroundImageFix"/>
<feBlend mode="normal" in="SourceGraphic" in2="BackgroundImageFix" result="shape"/>
<feGaussianBlur stdDeviation="222" result="effect1_foregroundBlur"/>
</filter>
<linearGradient id="paint0_linear" x1="730.5" y1="-35" x2="730.5" y2="5315" gradientUnits="userSpaceOnUse">
<stop stop-color="#EFEFEF" stop-opacity="0.6"/>
<stop offset="1" stop-color="#EFEFEF" stop-opacity="0.1"/>
</linearGradient>
<linearGradient id="paint1_linear" x1="1767.61" y1="5642.18" x2="795" y2="5642.18" gradientUnits="userSpaceOnUse">
<stop stop-color="white"/>
<stop offset="1" stop-color="#CDE9FF" stop-opacity="0"/>
</linearGradient>
<linearGradient id="paint2_linear" x1="1429.89" y1="5451.2" x2="1426.56" y2="6292.89" gradientUnits="userSpaceOnUse">
<stop stop-color="#ABD8FF"/>
<stop offset="1" stop-color="#71FFDD" stop-opacity="0.65"/>
</linearGradient>
<linearGradient id="paint3_linear" x1="699.725" y1="514.254" x2="-95.9678" y2="514.253" gradientUnits="userSpaceOnUse">
<stop stop-color="#F8C14F"/>
<stop offset="1" stop-color="#FFA6ED" stop-opacity="0"/>
</linearGradient>
<linearGradient id="paint4_linear" x1="1375.12" y1="2247.94" x2="1373" y2="2783.84" gradientUnits="userSpaceOnUse">
<stop stop-color="#AA80FF"/>
<stop offset="1" stop-color="#A071FF" stop-opacity="0.65"/>
</linearGradient>
<linearGradient id="paint5_linear" x1="1389.89" y1="3739.2" x2="1386.56" y2="4580.89" gradientUnits="userSpaceOnUse">
<stop stop-color="#FBE081"/>
<stop offset="1" stop-color="#71FFDD" stop-opacity="0.65"/>
</linearGradient>
<clipPath id="clip0">
<rect width="1440" height="6050" fill="white"/>
</clipPath>
</defs>
</svg>
